<svg xmlns="http://www.w3.org/2000/svg" version="1.1" xmlns:xlink="http://www.w3.org/1999/xlink" xmlns:svgjs="http://svgjs.com/svgjs" width="1440" height="560" preserveAspectRatio="none" viewBox="0 0 1440 560"><g mask="url(&quot;#SvgjsMask1000&quot;)" fill="none"><rect width="1440" height="560" x="0" y="0" fill="#0e2a47"></rect><path d="M66.25 97.16L131.21 134.66L131.21 209.66L66.25 247.16L1.3 209.66L1.3 134.66zM66.25 322.16L131.21 359.66L131.21 434.66L66.25 472.16L1.3 434.66L1.3 359.66zM131.21 434.66L196.16 472.16L196.16 547.16L131.21 584.66L66.25 547.16L66.25 472.16zM391.02 -15.34L455.98 22.16L455.98 97.16L391.02 134.66L326.07 97.16L326.07 22.16zM455.98 322.16L520.93 359.66L520.93 434.66L455.98 472.16L391.02 434.66L391.02 359.66zM455.98 547.16L520.93 584.66L520.93 659.66L455.98 697.16L391.02 659.66L391.02 584.66zM715.79 322.16L780.75 359.66L780.75 434.66L715.79 472.16L650.84 434.66L650.84 359.66zM715.79 547.16L780.75 584.66L780.75 659.66L715.79 697.16L650.84 659.66L650.84 584.66zM780.74 -15.34L845.7 22.16L845.7 97.16L780.74 134.66L715.79 97.16L715.79 22.16zM910.65 -15.34L975.61 22.16L975.61 97.16L910.65 134.66L845.7 97.16L845.7 22.16zM975.61 322.16L1040.56 359.66L1040.56 434.66L975.61 472.16L910.65 434.66L910.65 359.66zM975.61 547.16L1040.56 584.66L1040.56 659.66L975.61 697.16L910.65 659.66L910.65 584.66zM1105.51 97.16L1170.47 134.66L1170.47 209.66L1105.51 247.16L1040.56 209.66L1040.56 134.66zM1105.51 322.16L1170.47 359.66L1170.47 434.66L1105.51 472.16L1040.56 434.66L1040.56 359.66zM1170.47 209.66L1235.42 247.16L1235.42 322.16L1170.47 359.66L1105.51 322.16L1105.51 247.16zM1300.38 -15.34L1365.33 22.16L1365.33 97.16L1300.38 134.66L1235.42 97.16L1235.42 22.16zM1495.24 97.16L1560.19 134.66L1560.19 209.66L1495.24 247.16L1430.28 209.66L1430.28 134.66z" stroke="#03305d" stroke-width="2"></path><path d="M58.75 97.16 a7.5 7.5 0 1 0 15 0 a7.5 7.5 0 1 0 -15 0zM123.71 134.66 a7.5 7.5 0 1 0 15 0 a7.5 7.5 0 1 0 -15 0zM123.71 209.66 a7.5 7.5 0 1 0 15 0 a7.5 7.5 0 1 0 -15 0zM58.75 247.16 a7.5 7.5 0 1 0 15 0 a7.5 7.5 0 1 0 -15 0zM-6.2 209.66 a7.5 7.5 0 1 0 15 0 a7.5 7.5 0 1 0 -15 0zM-6.2 134.66 a7.5 7.5 0 1 0 15 0 a7.5 7.5 0 1 0 -15 0zM58.75 322.16 a7.5 7.5 0 1 0 15 0 a7.5 7.5 0 1 0 -15 0zM123.71 359.66 a7.5 7.5 0 1 0 15 0 a7.5 7.5 0 1 0 -15 0zM123.71 434.66 a7.5 7.5 0 1 0 15 0 a7.5 7.5 0 1 0 -15 0zM58.75 472.16 a7.5 7.5 0 1 0 15 0 a7.5 7.5 0 1 0 -15 0zM-6.2 434.66 a7.5 7.5 0 1 0 15 0 a7.5 7.5 0 1 0 -15 0zM-6.2 359.66 a7.5 7.5 0 1 0 15 0 a7.5 7.5 0 1 0 -15 0zM188.66 472.16 a7.5 7.5 0 1 0 15 0 a7.5 7.5 0 1 0 -15 0zM188.66 547.16 a7.5 7.5 0 1 0 15 0 a7.5 7.5 0 1 0 -15 0zM123.71 584.66 a7.5 7.5 0 1 0 15 0 a7.5 7.5 0 1 0 -15 0zM58.75 547.16 a7.5 7.5 0 1 0 15 0 a7.5 7.5 0 1 0 -15 0zM383.52 -15.34 a7.5 7.5 0 1 0 15 0 a7.5 7.5 0 1 0 -15 0zM448.48 22.16 a7.5 7.5 0 1 0 15 0 a7.5 7.5 0 1 0 -15 0zM448.48 97.16 a7.5 7.5 0 1 0 15 0 a7.5 7.5 0 1 0 -15 0zM383.52 134.66 a7.5 7.5 0 1 0 15 0 a7.5 7.5 0 1 0 -15 0zM318.57 97.16 a7.5 7.5 0 1 0 15 0 a7.5 7.5 0 1 0 -15 0zM318.57 22.16 a7.5 7.5 0 1 0 15 0 a7.5 7.5 0 1 0 -15 0zM448.48 322.16 a7.5 7.5 0 1 0 15 0 a7.5 7.5 0 1 0 -15 0zM513.43 359.66 a7.5 7.5 0 1 0 15 0 a7.5 7.5 0 1 0 -15 0zM513.43 434.66 a7.5 7.5 0 1 0 15 0 a7.5 7.5 0 1 0 -15 0zM448.48 472.16 a7.5 7.5 0 1 0 15 0 a7.5 7.5 0 1 0 -15 0zM383.52 434.66 a7.5 7.5 0 1 0 15 0 a7.5 7.5 0 1 0 -15 0zM383.52 359.66 a7.5 7.5 0 1 0 15 0 a7.5 7.5 0 1 0 -15 0zM448.48 547.16 a7.5 7.5 0 1 0 15 0 a7.5 7.5 0 1 0 -15 0zM513.43 584.66 a7.5 7.5 0 1 0 15 0 a7.5 7.5 0 1 0 -15 0zM513.43 659.66 a7.5 7.5 0 1 0 15 0 a7.5 7.5 0 1 0 -15 0zM448.48 697.16 a7.5 7.5 0 1 0 15 0 a7.5 7.5 0 1 0 -15 0zM383.52 659.66 a7.5 7.5 0 1 0 15 0 a7.5 7.5 0 1 0 -15 0zM383.52 584.66 a7.5 7.5 0 1 0 15 0 a7.5 7.5 0 1 0 -15 0zM708.29 322.16 a7.5 7.5 0 1 0 15 0 a7.5 7.5 0 1 0 -15 0zM773.25 359.66 a7.5 7.5 0 1 0 15 0 a7.5 7.5 0 1 0 -15 0zM773.25 434.66 a7.5 7.5 0 1 0 15 0 a7.5 7.5 0 1 0 -15 0zM708.29 472.16 a7.5 7.5 0 1 0 15 0 a7.5 7.5 0 1 0 -15 0zM643.34 434.66 a7.5 7.5 0 1 0 15 0 a7.5 7.5 0 1 0 -15 0zM643.34 359.66 a7.5 7.5 0 1 0 15 0 a7.5 7.5 0 1 0 -15 0zM708.29 547.16 a7.5 7.5 0 1 0 15 0 a7.5 7.5 0 1 0 -15 0zM773.25 584.66 a7.5 7.5 0 1 0 15 0 a7.5 7.5 0 1 0 -15 0zM773.25 659.66 a7.5 7.5 0 1 0 15 0 a7.5 7.5 0 1 0 -15 0zM708.29 697.16 a7.5 7.5 0 1 0 15 0 a7.5 7.5 0 1 0 -15 0zM643.34 659.66 a7.5 7.5 0 1 0 15 0 a7.5 7.5 0 1 0 -15 0zM643.34 584.66 a7.5 7.5 0 1 0 15 0 a7.5 7.5 0 1 0 -15 0zM773.24 -15.34 a7.5 7.5 0 1 0 15 0 a7.5 7.5 0 1 0 -15 0zM838.2 22.16 a7.5 7.5 0 1 0 15 0 a7.5 7.5 0 1 0 -15 0zM838.2 97.16 a7.5 7.5 0 1 0 15 0 a7.5 7.5 0 1 0 -15 0zM773.24 134.66 a7.5 7.5 0 1 0 15 0 a7.5 7.5 0 1 0 -15 0zM708.29 97.16 a7.5 7.5 0 1 0 15 0 a7.5 7.5 0 1 0 -15 0zM708.29 22.16 a7.5 7.5 0 1 0 15 0 a7.5 7.5 0 1 0 -15 0zM903.15 -15.34 a7.5 7.5 0 1 0 15 0 a7.5 7.5 0 1 0 -15 0zM968.11 22.16 a7.5 7.5 0 1 0 15 0 a7.5 7.5 0 1 0 -15 0zM968.11 97.16 a7.5 7.5 0 1 0 15 0 a7.5 7.5 0 1 0 -15 0zM903.15 134.66 a7.5 7.5 0 1 0 15 0 a7.5 7.5 0 1 0 -15 0zM968.11 322.16 a7.5 7.5 0 1 0 15 0 a7.5 7.5 0 1 0 -15 0zM1033.06 359.66 a7.5 7.5 0 1 0 15 0 a7.5 7.5 0 1 0 -15 0zM1033.06 434.66 a7.5 7.5 0 1 0 15 0 a7.5 7.5 0 1 0 -15 0zM968.11 472.16 a7.5 7.5 0 1 0 15 0 a7.5 7.5 0 1 0 -15 0zM903.15 434.66 a7.5 7.5 0 1 0 15 0 a7.5 7.5 0 1 0 -15 0zM903.15 359.66 a7.5 7.5 0 1 0 15 0 a7.5 7.5 0 1 0 -15 0zM968.11 547.16 a7.5 7.5 0 1 0 15 0 a7.5 7.5 0 1 0 -15 0zM1033.06 584.66 a7.5 7.5 0 1 0 15 0 a7.5 7.5 0 1 0 -15 0zM1033.06 659.66 a7.5 7.5 0 1 0 15 0 a7.5 7.5 0 1 0 -15 0zM968.11 697.16 a7.5 7.5 0 1 0 15 0 a7.5 7.5 0 1 0 -15 0zM903.15 659.66 a7.5 7.5 0 1 0 15 0 a7.5 7.5 0 1 0 -15 0zM903.15 584.66 a7.5 7.5 0 1 0 15 0 a7.5 7.5 0 1 0 -15 0zM1098.01 97.16 a7.5 7.5 0 1 0 15 0 a7.5 7.5 0 1 0 -15 0zM1162.97 134.66 a7.5 7.5 0 1 0 15 0 a7.5 7.5 0 1 0 -15 0zM1162.97 209.66 a7.5 7.5 0 1 0 15 0 a7.5 7.5 0 1 0 -15 0zM1098.01 247.16 a7.5 7.5 0 1 0 15 0 a7.5 7.5 0 1 0 -15 0zM1033.06 209.66 a7.5 7.5 0 1 0 15 0 a7.5 7.5 0 1 0 -15 0zM1033.06 134.66 a7.5 7.5 0 1 0 15 0 a7.5 7.5 0 1 0 -15 0zM1098.01 322.16 a7.5 7.5 0 1 0 15 0 a7.5 7.5 0 1 0 -15 0zM1162.97 359.66 a7.5 7.5 0 1 0 15 0 a7.5 7.5 0 1 0 -15 0zM1162.97 434.66 a7.5 7.5 0 1 0 15 0 a7.5 7.5 0 1 0 -15 0zM1098.01 472.16 a7.5 7.5 0 1 0 15 0 a7.5 7.5 0 1 0 -15 0zM1227.92 247.16 a7.5 7.5 0 1 0 15 0 a7.5 7.5 0 1 0 -15 0zM1227.92 322.16 a7.5 7.5 0 1 0 15 0 a7.5 7.5 0 1 0 -15 0zM1292.88 -15.34 a7.5 7.5 0 1 0 15 0 a7.5 7.5 0 1 0 -15 0zM1357.83 22.16 a7.5 7.5 0 1 0 15 0 a7.5 7.5 0 1 0 -15 0zM1357.83 97.16 a7.5 7.5 0 1 0 15 0 a7.5 7.5 0 1 0 -15 0zM1292.88 134.66 a7.5 7.5 0 1 0 15 0 a7.5 7.5 0 1 0 -15 0zM1227.92 97.16 a7.5 7.5 0 1 0 15 0 a7.5 7.5 0 1 0 -15 0zM1227.92 22.16 a7.5 7.5 0 1 0 15 0 a7.5 7.5 0 1 0 -15 0zM1487.74 97.16 a7.5 7.5 0 1 0 15 0 a7.5 7.5 0 1 0 -15 0zM1552.69 134.66 a7.5 7.5 0 1 0 15 0 a7.5 7.5 0 1 0 -15 0zM1552.69 209.66 a7.5 7.5 0 1 0 15 0 a7.5 7.5 0 1 0 -15 0zM1487.74 247.16 a7.5 7.5 0 1 0 15 0 a7.5 7.5 0 1 0 -15 0zM1422.78 209.66 a7.5 7.5 0 1 0 15 0 a7.5 7.5 0 1 0 -15 0zM1422.78 134.66 a7.5 7.5 0 1 0 15 0 a7.5 7.5 0 1 0 -15 0z" fill="#03305d"></path><path d="M42.39 -48.92L85.69 -23.92L85.69 26.08L42.39 51.08L-0.91 26.08L-0.91 -23.92zM85.69 176.08L129 201.08L129 251.08L85.69 276.08L42.39 251.08L42.39 201.08zM42.39 251.08L85.69 276.08L85.69 326.08L42.39 351.08L-0.91 326.08L-0.91 276.08zM129 -48.92L172.3 -23.92L172.3 26.08L129 51.08L85.69 26.08L85.69 -23.92zM172.3 176.08L215.6 201.08L215.6 251.08L172.3 276.08L129 251.08L129 201.08zM129 251.08L172.3 276.08L172.3 326.08L129 351.08L85.69 326.08L85.69 276.08zM172.3 476.08L215.6 501.08L215.6 551.08L172.3 576.08L129 551.08L129 501.08zM215.6 -48.92L258.9 -23.92L258.9 26.08L215.6 51.08L172.3 26.08L172.3 -23.92zM258.9 176.08L302.2 201.08L302.2 251.08L258.9 276.08L215.6 251.08L215.6 201.08zM215.6 251.08L258.9 276.08L258.9 326.08L215.6 351.08L172.3 326.08L172.3 276.08zM302.2 -48.92L345.51 -23.92L345.51 26.08L302.2 51.08L258.9 26.08L258.9 -23.92zM345.51 26.08L388.81 51.08L388.81 101.08L345.51 126.08L302.2 101.08L302.2 51.08zM302.2 101.08L345.51 126.08L345.51 176.08L302.2 201.08L258.9 176.08L258.9 126.08zM302.2 251.08L345.51 276.08L345.51 326.08L302.2 351.08L258.9 326.08L258.9 276.08zM345.51 476.08L388.81 501.08L388.81 551.08L345.51 576.08L302.2 551.08L302.2 501.08zM388.81 -48.92L432.11 -23.92L432.11 26.08L388.81 51.08L345.51 26.08L345.51 -23.92zM432.11 326.08L475.42 351.08L475.42 401.08L432.11 426.08L388.81 401.08L388.81 351.08zM388.81 401.08L432.11 426.08L432.11 476.08L388.81 501.08L345.51 476.08L345.51 426.08zM432.11 476.08L475.42 501.08L475.42 551.08L432.11 576.08L388.81 551.08L388.81 501.08zM475.42 -48.92L518.72 -23.92L518.72 26.08L475.42 51.08L432.11 26.08L432.11 -23.92zM518.72 26.08L562.02 51.08L562.02 101.08L518.72 126.08L475.42 101.08L475.42 51.08zM475.42 101.08L518.72 126.08L518.72 176.08L475.42 201.08L432.11 176.08L432.11 126.08zM475.42 401.08L518.72 426.08L518.72 476.08L475.42 501.08L432.11 476.08L432.11 426.08zM518.72 476.08L562.02 501.08L562.02 551.08L518.72 576.08L475.42 551.08L475.42 501.08zM605.32 26.08L648.63 51.08L648.63 101.08L605.32 126.08L562.02 101.08L562.02 51.08zM605.32 176.08L648.63 201.08L648.63 251.08L605.32 276.08L562.02 251.08L562.02 201.08zM562.02 251.08L605.32 276.08L605.32 326.08L562.02 351.08L518.72 326.08L518.72 276.08zM605.32 326.08L648.63 351.08L648.63 401.08L605.32 426.08L562.02 401.08L562.02 351.08zM605.32 476.08L648.63 501.08L648.63 551.08L605.32 576.08L562.02 551.08L562.02 501.08zM691.93 26.08L735.23 51.08L735.23 101.08L691.93 126.08L648.63 101.08L648.63 51.08zM648.63 101.08L691.93 126.08L691.93 176.08L648.63 201.08L605.32 176.08L605.32 126.08zM778.53 26.08L821.84 51.08L821.84 101.08L778.53 126.08L735.23 101.08L735.23 51.08zM735.23 101.08L778.53 126.08L778.53 176.08L735.23 201.08L691.93 176.08L691.93 126.08zM865.14 476.08L908.44 501.08L908.44 551.08L865.14 576.08L821.84 551.08L821.84 501.08zM908.44 -48.92L951.74 -23.92L951.74 26.08L908.44 51.08L865.14 26.08L865.14 -23.92zM908.44 101.08L951.74 126.08L951.74 176.08L908.44 201.08L865.14 176.08L865.14 126.08zM908.44 251.08L951.74 276.08L951.74 326.08L908.44 351.08L865.14 326.08L865.14 276.08zM951.74 476.08L995.05 501.08L995.05 551.08L951.74 576.08L908.44 551.08L908.44 501.08zM995.05 -48.92L1038.35 -23.92L1038.35 26.08L995.05 51.08L951.74 26.08L951.74 -23.92zM1038.35 26.08L1081.65 51.08L1081.65 101.08L1038.35 126.08L995.05 101.08L995.05 51.08zM1081.65 101.08L1124.95 126.08L1124.95 176.08L1081.65 201.08L1038.35 176.08L1038.35 126.08zM1124.95 326.08L1168.26 351.08L1168.26 401.08L1124.95 426.08L1081.65 401.08L1081.65 351.08zM1211.56 26.08L1254.86 51.08L1254.86 101.08L1211.56 126.08L1168.26 101.08L1168.26 51.08zM1168.26 251.08L1211.56 276.08L1211.56 326.08L1168.26 351.08L1124.95 326.08L1124.95 276.08zM1211.56 326.08L1254.86 351.08L1254.86 401.08L1211.56 426.08L1168.26 401.08L1168.26 351.08zM1168.26 401.08L1211.56 426.08L1211.56 476.08L1168.26 501.08L1124.95 476.08L1124.95 426.08zM1211.56 476.08L1254.86 501.08L1254.86 551.08L1211.56 576.08L1168.26 551.08L1168.26 501.08zM1254.86 -48.92L1298.16 -23.92L1298.16 26.08L1254.86 51.08L1211.56 26.08L1211.56 -23.92zM1254.86 401.08L1298.16 426.08L1298.16 476.08L1254.86 501.08L1211.56 476.08L1211.56 426.08zM1298.16 476.08L1341.47 501.08L1341.47 551.08L1298.16 576.08L1254.86 551.08L1254.86 501.08zM1341.47 -48.92L1384.77 -23.92L1384.77 26.08L1341.47 51.08L1298.16 26.08L1298.16 -23.92zM1341.47 101.08L1384.77 126.08L1384.77 176.08L1341.47 201.08L1298.16 176.08L1298.16 126.08zM1384.77 326.08L1428.07 351.08L1428.07 401.08L1384.77 426.08L1341.47 401.08L1341.47 351.08zM1384.77 476.08L1428.07 501.08L1428.07 551.08L1384.77 576.08L1341.47 551.08L1341.47 501.08zM1471.37 326.08L1514.68 351.08L1514.68 401.08L1471.37 426.08L1428.07 401.08L1428.07 351.08zM1471.37 476.08L1514.68 501.08L1514.68 551.08L1471.37 576.08L1428.07 551.08L1428.07 501.08z" stroke="rgba(6, 80, 156, 0.93)" stroke-width="2"></path></g><defs><mask id="SvgjsMask1000"><rect width="1440" height="560" fill="#ffffff"></rect></mask></defs></svg>