<?xml version="1.0" encoding="iso-8859-1"?>
<!-- Generator: Adobe Illustrator 19.0.0, SVG Export Plug-In . SVG Version: 6.00 Build 0)  -->
<svg version="1.1" id="Capa_1" xmlns="http://www.w3.org/2000/svg" xmlns:xlink="http://www.w3.org/1999/xlink" x="0px" y="0px"
	 viewBox="0 0 512 512" style="enable-background:new 0 0 512 512;" xml:space="preserve">
<g>
	<g>
		<path d="M258.677,121.888c-56,32-48.704,134.112-48.704,134.112s-40-15.008-33.984-96
			C69.685,253.696,72.981,338.368,90.037,397.376c-47.776,49.28-70.272,87.776-71.936,90.72c-4.352,7.68-1.696,17.44,5.984,21.824
			c2.496,1.408,5.216,2.08,7.904,2.08c5.568,0,10.976-2.912,13.92-8.096c0.384-0.672,21.952-37.376,68.128-84.832
			C472.533,479.392,495.989,0,495.989,0C425.973,56.992,347.669,74.88,258.677,121.888z"/>
	</g>
</g>
<g>
	<g>
		<path d="M351.989,480h-256c-8.832,0-16,7.168-16,16c0,8.832,7.168,16,16,16h256c8.832,0,16-7.168,16-16
			C367.989,487.168,360.821,480,351.989,480z"/>
	</g>
</g>
<g>
</g>
<g>
</g>
<g>
</g>
<g>
</g>
<g>
</g>
<g>
</g>
<g>
</g>
<g>
</g>
<g>
</g>
<g>
</g>
<g>
</g>
<g>
</g>
<g>
</g>
<g>
</g>
<g>
</g>
</svg>
