<svg height="460pt" viewBox="0 -34 460.28705 460" width="460pt" xmlns="http://www.w3.org/2000/svg"><path d="m346 357.140625h-280c-18.21875-.023437-32.980469-14.785156-33-33v-187.425781c-.003906-3.777344.648438-7.527344 1.917969-11.082032-13.132813 4.699219-21.902344 17.132813-21.917969 31.082032v187.425781c.019531 18.214844 14.78125 32.976563 33 33h280c13.945312-.019531 26.382812-8.789063 31.082031-21.921875-3.558593 1.273438-7.304687 1.921875-11.082031 1.921875zm0 0" fill="#d4e1f4"/><path d="m459.929688 224.929688-25.578126-76.75c-.019531-.046876-.039062-.09375-.0625-.140626-.0625-.191406-.136718-.378906-.21875-.558593-.039062-.082031-.070312-.152344-.109374-.230469-.101563-.195312-.210938-.386719-.332032-.570312-.019531-.050782-.050781-.089844-.070312-.128907-.148438-.222656-.308594-.4375-.480469-.640625-.046875-.0625-.097656-.109375-.148437-.160156-.085938-.105469-.175782-.207031-.269532-.300781l-143.261718-143.261719c-2.730469-2.726562-7.15625-2.726562-9.886719 0l-51.171875 51.160156c-2.734375 2.734375-2.734375 7.167969 0 9.902344l46.460937 46.460938 13.988281 14 45.960938 45.957031-43.828125 38.550781-85.113281 72.191406c-10.800782 9.210938-26.6875 9.21875-37.5.019532l-153.679688-130.128907-3.109375-2.632812c-1.765625-1.488281-4.148437-2.011719-6.375-1.398438-2.226562.609375-4.007812 2.277344-4.765625 4.460938v.007812c-.3554685 1.046875-.4609372 2.164063-.300781 3.261719.230469 1.699219 1.085937 3.25 2.402344 4.347656l11.519531 9.761719 145.261719 123c16.023437 13.648437 39.585937 13.640625 55.597656-.019531l85.160156-72.230469c.035157-.023437.070313-.050781.101563-.082031l44.550781-39.1875 15.328125 15.320312 11.601562 11.597656c.089844.09375.1875.179688.289063.261719.058594.050781.109375.109375.167969.160157.222656.179687.441406.339843.660156.488281h.011719c.226562.152343.464843.289062.710937.410156.046875.019531.109375.050781.160156.070313.128907.0625.257813.121093.398438.171874.070312.027344.148438.058594.230469.089844.035156.011719.066406.023438.097656.039063l76.75 25.578125c2.515625.835937 5.285156.179687 7.160156-1.691406 1.871094-1.875 2.527344-4.644532 1.691407-7.15625zm-216.738282-166.628907 41.269532-41.261719 18.238281 18.238282-41.269531 41.261718zm28.136719 28.136719 41.261719-41.257812 105.21875 105.21875-20.628906 20.628906-20.628907 20.632812zm118.183594 112.0625 35.136719-35.140625 17.570312 52.710937zm0 0" fill="#1ae5be"/><path d="m374 208.070312v136.070313c.011719 10.96875-3.832031 21.59375-10.859375 30.019531-.34375.644532-.78125 1.234375-1.300781 1.75-.324219.3125-.675782.597656-1.050782.847656-8.835937 9.195313-21.039062 14.386719-33.789062 14.382813h-280c-12.769531.003906-24.988281-5.207031-33.828125-14.421875-.367187-.242188-.707031-.515625-1.023437-.820312-.519532-.515626-.960938-1.109376-1.296876-1.757813-7.019531-8.421875-10.8593745-19.039063-10.851562-30v-187.429687c0-.910157.03125-1.820313.078125-2.710938.0625-1.101562.160156-2.179688.300781-3.261719v-.007812c3.035156-23.441407 22.984375-40.996094 46.621094-41.019531h227.800781l13.988281 14h-241.789062c-18.222656.003906-32.996094 14.773437-33 33v187.429687c-.007812 5.503906 1.371094 10.925781 4.011719 15.757813l83.628906-85.539063c2.703125-2.765625 7.136719-2.8125 9.898437-.109375 2.765626 2.703125 2.8125 7.136719.109376 9.898438l-84.449219 86.371093c5.703125 4.304688 12.65625 6.628907 19.800781 6.621094h280c7.125.007813 14.0625-2.304687 19.761719-6.582031l-84.921875-86.398438c-2.707032-2.761718-2.667969-7.191406.089844-9.902344 2.757812-2.707031 7.191406-2.667968 9.898437.089844l84.132813 85.601563c2.652343-4.847657 4.042968-10.285157 4.039062-15.808594v-149.230469l11.601562 11.597656c.089844.09375.1875.179688.289063.261719.058594.050781.109375.109375.167969.160157.222656.179687.441406.339843.660156.488281h.011719c.226562.152343.464843.289062.710937.410156.046875.019531.109375.050781.160156.070313.128907.0625.257813.121093.398438.171874zm0 0" fill="#0635c9"/></svg>