<svg height="414pt" viewBox="0 -51 414 414" width="414pt" xmlns="http://www.w3.org/2000/svg"><path d="m392.984375 274.660156h-318.753906c-21.390625-.023437-38.722657-17.359375-38.746094-38.746094v-210.066406c-.003906-4.433594.757813-8.832031 2.25-13.007812-15.417969 5.515625-25.714844 20.117187-25.734375 36.492187v210.0625c.023438 21.390625 17.355469 38.722657 38.746094 38.746094h318.753906c16.378906-.015625 30.984375-10.3125 36.5-25.734375-4.175781 1.492188-8.578125 2.257812-13.015625 2.253906zm0 0" fill="#d4e1f4"/><path d="m207.054688 211.359375c11.140624-.003906 21.917968-3.972656 30.398437-11.199219l174.074219-147.640625-9.054688-10.675781-174.074218 147.636719c-12.289063 10.480469-30.371094 10.488281-42.667969.015625l-174.207031-147.507813-9.046876 10.683594 174.207032 147.511719c8.476562 7.210937 19.238281 11.171875 30.371094 11.175781zm0 0" fill="#1ae5be"/><path d="m47 311.140625h320c25.945312-.027344 46.972656-21.054687 47-47v-217.140625c-.027344-25.945312-21.054688-46.9726562-47-47h-320c-25.945312.0273438-46.9726562 21.054688-47 47v217.140625c.0273438 25.945313 21.054688 46.972656 47 47zm-33-264.140625c.019531-18.21875 14.78125-32.980469 33-33h320c18.21875.019531 32.980469 14.78125 33 33v217.140625c.007812 5.445313-1.34375 10.804687-3.925781 15.59375l-95.375-97.039063c-2.714844-2.734374-7.125-2.761718-9.875-.0625-2.746094 2.703126-2.796875 7.113282-.109375 9.875l96.226562 97.90625c-5.730468 4.371094-12.734375 6.734376-19.941406 6.726563h-320c-7.222656.007813-14.246094-2.367187-19.980469-6.757813l95.699219-97.886718c1.773438-1.785156 2.453125-4.382813 1.78125-6.804688-.671875-2.425781-2.589844-4.300781-5.027344-4.917968-2.441406-.617188-5.023437.121093-6.765625 1.9375l-94.808593 96.972656c-2.5625-4.777344-3.902344-10.117188-3.898438-15.542969zm0 0" fill="#0635c9"/></svg>