<svg height="478pt" viewBox="0 -42 478.94619 478" width="478pt" xmlns="http://www.w3.org/2000/svg"><path d="m346.5 360.773438h-280c-18.21875-.019532-32.980469-14.78125-33-33v-187.425782c-.003906-3.777344.648438-7.523437 1.917969-11.082031-13.132813 4.699219-21.902344 17.136719-21.917969 31.082031v187.425782c.019531 18.21875 14.78125 32.980468 33 33h280c13.945312-.015626 26.382812-8.785157 31.082031-21.917969-3.558593 1.273437-7.304687 1.921875-11.082031 1.917969zm0 0" fill="#d4e1f4"/><path d="m476.609375 93.0625-103.988281-90.859375c-2.621094-2.2890625-6.523438-2.308594-9.171875-.046875l-80.160157 68.707031c-.40625.285157-.78125.609375-1.117187.972657l-24.730469 21.1875c-2.9375 2.519531-3.273437 6.941406-.757812 9.875 2.519531 2.9375 6.941406 3.273437 9.875.757812l13.679687-11.730469v128.289063l-74.429687 63.128906c-10.800782 9.210938-26.6875 9.21875-37.5.019531l-153.679688-130.128906-3.109375-2.628906-9.039062 10.679687 11.519531 9.757813 145.261719 123c16.023437 13.648437 39.585937 13.640625 55.597656-.019531l75.871094-64.347657h156.03125c3.863281 0 7-3.136719 7-7v-130.980469l13.628906 11.917969c2.917969 2.492188 7.300781 2.175781 9.824219-.714843 2.527344-2.890626 2.257812-7.277344-.605469-9.835938zm-36.847656 122.613281h-145.523438v-135.75l73.730469-63.191406 71.792969 62.730469zm0 0" fill="#1ae5be"/><path d="m374 229.675781v117.398438c.003906 10.96875-3.835938 21.59375-10.859375 30.019531-.34375.644531-.78125 1.234375-1.300781 1.75-.324219.3125-.675782.597656-1.050782.851562-8.835937 9.191407-21.039062 14.386719-33.789062 14.378907h-280c-12.769531.003906-24.988281-5.203125-33.828125-14.417969-.367187-.242188-.707031-.519531-1.023437-.820312-.519532-.515626-.960938-1.109376-1.296876-1.761719-7.019531-8.421875-10.8593745-19.039063-10.851562-30v-187.429688c.03125-25.945312 21.054688-46.96875 47-47h233.238281v14h-233.238281c-18.222656.003907-32.996094 14.777344-33 33v187.429688c-.007812 5.507812 1.371094 10.925781 4.011719 15.761719l83.628906-85.542969c2.703125-2.761719 7.136719-2.8125 9.898437-.109375 2.765626 2.703125 2.8125 7.136718.109376 9.902344l-84.449219 86.367187c5.703125 4.304687 12.65625 6.628906 19.800781 6.621094h280c7.125.007812 14.0625-2.300781 19.761719-6.578125l-84.921875-86.402344c-2.707032-2.757812-2.667969-7.191406.089844-9.898438 2.757812-2.710937 7.191406-2.667968 9.898437.089844l84.132813 85.597656c2.652343-4.84375 4.042968-10.28125 4.039062-15.808593v-117.398438zm0 0" fill="#0635c9"/></svg>