<svg height="464pt" viewBox="0 -35 464.00153 464" width="464pt" xmlns="http://www.w3.org/2000/svg"><path d="m346 360.652344h-280c-18.214844-.023438-32.980469-14.785156-33-33v-187.429688c-.003906-3.777344.648438-7.523437 1.917969-11.078125-13.132813 4.695313-21.902344 17.132813-21.917969 31.078125v187.429688c.019531 18.214844 14.785156 32.976562 33 33h280c13.945312-.019532 26.382812-8.789063 31.082031-21.921875-3.558593 1.273437-7.304687 1.921875-11.082031 1.921875zm0 0" fill="#d4e1f4"/><g fill="#1ae5be"><path d="m367 146.289062c-3.867188 0-7 3.132813-7 7v45.074219c0 3.863281 3.132812 7 7 7s7-3.136719 7-7v-45.074219c0-3.867187-3.132812-7-7-7zm0 0"/><path d="m401.136719 146.289062c-3.863281 0-7 3.132813-7 7v45.074219c0 3.863281 3.136719 7 7 7 3.867187 0 7-3.136719 7-7v-45.074219c0-3.867187-3.132813-7-7-7zm0 0"/><path d="m332.863281 146.289062c-3.867187 0-7 3.132813-7 7v45.074219c0 3.863281 3.132813 7 7 7 3.863281 0 7-3.136719 7-7v-45.074219c0-3.867187-3.136719-7-7-7zm0 0"/><path d="m438.25 37.320312h-28.859375v-23.890624c-.011719-7.410157-6.019531-13.4179692-13.429687-13.429688h-57.921876c-7.410156.0117188-13.417968 6.019531-13.429687 13.429688v23.890624h-28.859375c-12.304688-.003906-22.894531 8.699219-25.265625 20.773438-2.375 12.074219 4.125 24.140625 15.515625 28.796875v125.082031c0 1.089844.066406 2.183594.199219 3.269532l-80.390625 68.179687c-10.800782 9.210937-26.6875 9.21875-37.5.019531l-153.679688-130.128906-3.109375-2.632812c-1.765625-1.488282-4.148437-2.011719-6.375-1.398438-2.226562.609375-4.007812 2.277344-4.765625 4.460938v.007812c-.3554685 1.046875-.4609372 2.164062-.300781 3.261719.230469 1.699219 1.085937 3.25 2.402344 4.347656l11.519531 9.761719 145.261719 123c16.023437 13.648437 39.585937 13.640625 55.597656-.019532l76.8125-65.152343c5.34375 7.144531 13.746094 11.351562 22.667969 11.351562h105.320312c15.640625-.015625 28.320313-12.6875 28.339844-28.328125v-125.082031c11.390625-4.65625 17.890625-16.722656 15.519531-28.796875-2.375-12.074219-12.964843-20.777344-25.269531-20.773438zm-99.640625-23.320312h56.78125v23.320312h-56.78125zm95.390625 197.972656c-.011719 7.910156-6.425781 14.324219-14.339844 14.328125h-105.320312c-7.914063-.003906-14.328125-6.417969-14.339844-14.328125v-123.160156h134zm4.25-137.160156h-142.5c-6.488281 0-11.746094-5.261719-11.746094-11.746094 0-6.488281 5.257813-11.746094 11.746094-11.746094h142.5c6.488281 0 11.746094 5.257813 11.746094 11.746094 0 6.484375-5.257813 11.746094-11.746094 11.746094zm0 0"/></g><path d="m374 240.300781v106.851563c.011719 10.972656-3.835938 21.597656-10.871094 30.019531-.335937.644531-.769531 1.234375-1.289062 1.75-.324219.3125-.675782.597656-1.050782.847656-8.835937 9.195313-21.039062 14.386719-33.789062 14.382813h-280c-12.769531 0-24.988281-5.207032-33.828125-14.421875-.363281-.242188-.707031-.519531-1.023437-.820313-.519532-.515625-.960938-1.109375-1.296876-1.757812-7.019531-8.421875-10.8593745-19.039063-10.851562-30v-187.429688c0-.910156.03125-1.820312.078125-2.710937.0625-1.101563.160156-2.179688.300781-3.261719v-.007812c3.035156-23.441407 22.984375-40.996094 46.621094-41.019532h239v14h-239c-18.222656.003906-32.996094 14.773438-33 33v187.429688c-.007812 5.503906 1.371094 10.925781 4.011719 15.757812l83.628906-85.539062c2.703125-2.765625 7.136719-2.8125 9.898437-.109375 2.765626 2.703125 2.8125 7.136719.109376 9.898437l-84.449219 86.371094c5.703125 4.304688 12.65625 6.628906 19.800781 6.621094h280c7.125.007812 14.0625-2.304688 19.761719-6.582032l-84.921875-86.398437c-2.707032-2.761719-2.667969-7.191406.089844-9.902344 2.757812-2.707031 7.191406-2.667969 9.898437.089844l84.132813 85.601563c2.652343-4.847657 4.042968-10.285157 4.039062-15.808594v-106.851563zm0 0" fill="#0635c9"/></svg>