<?xml version="1.0" encoding="iso-8859-1"?>
<!-- Generator: Adobe Illustrator 19.0.0, SVG Export Plug-In . SVG Version: 6.00 Build 0)  -->
<svg version="1.1" id="Capa_1" xmlns="http://www.w3.org/2000/svg" xmlns:xlink="http://www.w3.org/1999/xlink" x="0px" y="0px"
	 viewBox="0 0 512 512" style="enable-background:new 0 0 512 512;" xml:space="preserve">
<g>
	<g>
		<path d="M432,64h-26.368L330.016,3.488C327.168,1.248,323.616,0,320,0H192c-3.648,0-7.168,1.248-10.016,3.488L106.368,64H80
			c-8.832,0-16,7.168-16,16v64c0,8.832,7.168,16,16,16h16v320c0,17.664,14.368,32,32,32h256c17.664,0,32-14.336,32-32V160h16
			c8.832,0,16-7.168,16-16V80C448,71.168,440.832,64,432,64z M352,400c0,8.832-7.168,16-16,16H176c-8.832,0-16-7.168-16-16V272
			c0-8.832,7.168-16,16-16h160c8.832,0,16,7.168,16,16V400z M352,224H160v-32h192V224z"/>
	</g>
</g>
<g>
	<g>
		<polygon points="192,288 192,293.184 256,318.784 320,293.184 320,288 		"/>
	</g>
</g>
<g>
	<g>
		<path d="M261.952,350.848c-1.92,0.768-3.936,1.152-5.952,1.152s-4.032-0.384-5.952-1.152L192,327.616V384h128v-56.384
			L261.952,350.848z"/>
	</g>
</g>
<g>
</g>
<g>
</g>
<g>
</g>
<g>
</g>
<g>
</g>
<g>
</g>
<g>
</g>
<g>
</g>
<g>
</g>
<g>
</g>
<g>
</g>
<g>
</g>
<g>
</g>
<g>
</g>
<g>
</g>
</svg>
